
      <svg data-logo="logo" xmlns="http://www.w3.org/2000/svg" viewBox="0 0 231 43">
        <g id="logogram" transform="translate(0, 1) rotate(0) "><path fill-rule="evenodd" clip-rule="evenodd" d="M9.00537 3.67782C7.57471 4.67818 6.28101 5.86093 5.15796 7.19235C9.74726 6.76628 15.5778 7.462 22.347 10.8466C29.5756 14.4608 35.3964 14.583 39.4474 13.8016C39.0798 12.6887 38.617 11.6191 38.0689 10.6023C33.4316 11.0914 27.4866 10.444 20.5582 6.97993C16.1586 4.78013 12.2804 3.87396 9.00537 3.67782ZM35.36 6.7466C31.6979 2.65495 26.376 0.0799561 20.4526 0.0799561C18.7131 0.0799561 17.0253 0.302063 15.4163 0.719436C17.5955 1.31404 19.9105 2.18394 22.347 3.40222C27.4196 5.93848 31.799 6.75511 35.36 6.7466ZM40.3135 17.708C35.4195 18.6744 28.6614 18.4759 20.5582 14.4243C12.9826 10.6365 6.95307 10.6842 2.88654 11.5879C2.67664 11.6345 2.47168 11.6835 2.27167 11.7345C1.73926 12.8924 1.31427 14.11 1.00934 15.3744C1.33502 15.2874 1.67157 15.2047 2.0188 15.1275C6.95221 14.0312 13.9227 14.0788 22.347 18.291C29.9227 22.0788 35.9522 22.0311 40.0188 21.1274C40.1581 21.0965 40.2954 21.0645 40.4304 21.0315C40.4452 20.7162 40.4526 20.3989 40.4526 20.0799C40.4526 19.2774 40.4054 18.4859 40.3135 17.708ZM39.7774 25.2522C34.9309 26.0995 28.3696 25.7743 20.5582 21.8687C12.9826 18.0809 6.95307 18.1286 2.88654 19.0323C1.98389 19.2328 1.17188 19.4771 0.455567 19.735C0.453614 19.8497 0.452637 19.9647 0.452637 20.0799C0.452637 31.1256 9.40693 40.0799 20.4526 40.0799C29.7097 40.0799 37.4979 33.7908 39.7774 25.2522Z" fill="#7F57F1"/></g>
        <g id="logotype" transform="translate(47, 10.5)"><path fill="#2f234f" d="M7.98 0.17L12.45 0.17L12.45 22L7.98 22L7.98 0.17ZM20.85 22.32L20.85 22.32Q18.87 22.32 17.35 21.76Q15.83 21.19 14.86 20.12Q13.89 19.04 13.62 17.52L13.62 17.52L17.70 16.81Q18.02 17.96 18.83 18.53Q19.64 19.10 20.98 19.10L20.98 19.10Q22.23 19.10 22.96 18.62Q23.69 18.15 23.69 17.42L23.69 17.42Q23.69 16.77 23.17 16.36Q22.65 15.95 21.58 15.73L21.58 15.73L18.76 15.14Q16.38 14.66 15.21 13.50Q14.04 12.33 14.04 10.50L14.04 10.50Q14.04 8.92 14.90 7.78Q15.77 6.65 17.31 6.03Q18.84 5.42 20.93 5.42L20.93 5.42Q22.86 5.42 24.28 5.95Q25.70 6.49 26.58 7.47Q27.46 8.45 27.75 9.78L27.75 9.78L23.85 10.47Q23.61 9.64 22.90 9.10Q22.18 8.57 20.98 8.57L20.98 8.57Q19.90 8.57 19.17 9.02Q18.43 9.48 18.43 10.22L18.43 10.22Q18.43 10.85 18.91 11.28Q19.39 11.70 20.54 11.94L20.54 11.94L23.49 12.52Q25.86 13.01 27.02 14.10Q28.18 15.19 28.18 16.95L28.18 16.95Q28.18 18.56 27.24 19.77Q26.30 20.97 24.65 21.65Q23.01 22.32 20.85 22.32ZM35.70 22.32L35.70 22.32Q33.73 22.32 32.20 21.76Q30.68 21.19 29.71 20.12Q28.75 19.04 28.47 17.52L28.47 17.52L32.55 16.81Q32.88 17.96 33.68 18.53Q34.49 19.10 35.84 19.10L35.84 19.10Q37.08 19.10 37.81 18.62Q38.55 18.15 38.55 17.42L38.55 17.42Q38.55 16.77 38.03 16.36Q37.51 15.95 36.44 15.73L36.44 15.73L33.61 15.14Q31.24 14.66 30.06 13.50Q28.89 12.33 28.89 10.50L28.89 10.50Q28.89 8.92 29.76 7.78Q30.62 6.65 32.16 6.03Q33.70 5.42 35.78 5.42L35.78 5.42Q37.71 5.42 39.13 5.95Q40.55 6.49 41.43 7.47Q42.31 8.45 42.60 9.78L42.60 9.78L38.71 10.47Q38.46 9.64 37.75 9.10Q37.04 8.57 35.84 8.57L35.84 8.57Q34.75 8.57 34.02 9.02Q33.29 9.48 33.29 10.22L33.29 10.22Q33.29 10.85 33.76 11.28Q34.24 11.70 35.40 11.94L35.40 11.94L38.34 12.52Q40.71 13.01 41.87 14.10Q43.03 15.19 43.03 16.95L43.03 16.95Q43.03 18.56 42.09 19.77Q41.15 20.97 39.50 21.65Q37.86 22.32 35.70 22.32ZM49.69 22.21L49.69 22.21Q47.99 22.21 46.72 21.47Q45.44 20.73 44.75 19.34Q44.05 17.96 44.05 16.04L44.05 16.04L44.05 5.62L48.45 5.62L48.45 15.28Q48.45 16.80 49.24 17.66Q50.03 18.53 51.40 18.53L51.40 18.53Q52.34 18.53 53.06 18.13Q53.78 17.72 54.18 16.95Q54.58 16.18 54.58 15.10L54.58 15.10L54.58 5.62L58.98 5.62L58.98 22L54.83 22L54.77 17.91L55.02 17.91Q54.38 19.98 53.05 21.09Q51.73 22.21 49.69 22.21ZM68.18 22.32L68.18 22.32Q65.67 22.32 63.85 21.30Q62.04 20.27 61.06 18.38Q60.09 16.49 60.09 13.90L60.09 13.90Q60.09 11.37 61.06 9.46Q62.02 7.56 63.80 6.49Q65.57 5.42 67.96 5.42L67.96 5.42Q69.57 5.42 70.96 5.93Q72.35 6.44 73.41 7.48Q74.46 8.51 75.05 10.06Q75.65 11.61 75.65 13.72L75.65 13.72L75.65 14.95L61.89 14.95L61.89 12.20L73.49 12.20L71.44 12.93Q71.44 11.66 71.05 10.71Q70.67 9.77 69.90 9.25Q69.13 8.73 67.99 8.73L67.99 8.73Q66.86 8.73 66.06 9.26Q65.26 9.78 64.85 10.68Q64.44 11.58 64.44 12.74L64.44 12.74L64.44 14.69Q64.44 16.11 64.92 17.08Q65.39 18.04 66.25 18.53Q67.11 19.01 68.25 19.01L68.25 19.01Q69.03 19.01 69.66 18.79Q70.28 18.57 70.73 18.14Q71.18 17.71 71.41 17.08L71.41 17.08L75.40 17.83Q75.00 19.17 74.02 20.19Q73.04 21.21 71.57 21.77Q70.09 22.32 68.18 22.32ZM87.76 3.88L81.08 3.88L81.08 0.17L98.90 0.17L98.90 3.88L92.24 3.88L92.24 22L87.76 22L87.76 3.88ZM104.32 22L99.93 22L99.93 5.62L104.18 5.62L104.18 8.48L104.35 8.48Q104.81 6.96 105.87 6.18Q106.93 5.40 108.31 5.40L108.31 5.40Q108.64 5.40 109.03 5.44Q109.42 5.48 109.73 5.55L109.73 5.55L109.73 9.48Q109.43 9.37 108.88 9.31Q108.32 9.26 107.82 9.26L107.82 9.26Q106.83 9.26 106.02 9.69Q105.22 10.12 104.77 10.89Q104.32 11.66 104.32 12.68L104.32 12.68L104.32 22ZM114.77 22.32L114.77 22.32Q113.21 22.32 111.97 21.77Q110.74 21.22 110.03 20.13Q109.32 19.04 109.32 17.42L109.32 17.42Q109.32 16.05 109.82 15.13Q110.33 14.21 111.20 13.65Q112.07 13.09 113.18 12.80Q114.28 12.51 115.50 12.39L115.50 12.39Q116.92 12.24 117.79 12.12Q118.66 12.00 119.06 11.72Q119.47 11.45 119.47 10.93L119.47 10.93L119.47 10.85Q119.47 10.15 119.17 9.67Q118.88 9.18 118.31 8.93Q117.74 8.67 116.90 8.67L116.90 8.67Q116.05 8.67 115.42 8.93Q114.79 9.18 114.40 9.61Q114.00 10.03 113.81 10.56L113.81 10.56L109.78 9.89Q110.21 8.46 111.19 7.47Q112.17 6.47 113.63 5.95Q115.09 5.42 116.90 5.42L116.90 5.42Q118.24 5.42 119.48 5.73Q120.73 6.05 121.72 6.71Q122.70 7.37 123.28 8.42Q123.86 9.48 123.86 10.97L123.86 10.97L123.86 22L119.70 22L119.70 19.73L119.56 19.73Q119.16 20.49 118.50 21.07Q117.84 21.65 116.91 21.99Q115.98 22.32 114.77 22.32ZM116.01 19.23L116.01 19.23Q117.05 19.23 117.83 18.82Q118.62 18.41 119.06 17.71Q119.50 17.00 119.50 16.14L119.50 16.14L119.50 14.37Q119.31 14.51 118.91 14.63Q118.52 14.75 118.03 14.84Q117.55 14.92 117.08 15.00Q116.61 15.07 116.24 15.12L116.24 15.12Q115.44 15.23 114.82 15.50Q114.21 15.76 113.87 16.19Q113.53 16.62 113.53 17.30L113.53 17.30Q113.53 17.93 113.86 18.36Q114.18 18.79 114.73 19.01Q115.28 19.23 116.01 19.23ZM132.99 22.32L132.99 22.32Q130.51 22.32 128.72 21.26Q126.92 20.20 125.95 18.30Q124.97 16.40 124.97 13.88L124.97 13.88Q124.97 11.34 125.95 9.44Q126.92 7.54 128.72 6.48Q130.51 5.42 132.99 5.42L132.99 5.42Q134.44 5.42 135.67 5.80Q136.90 6.18 137.85 6.88Q138.80 7.59 139.42 8.60Q140.03 9.61 140.27 10.87L140.27 10.87L136.18 11.63Q136.05 10.98 135.77 10.48Q135.49 9.97 135.10 9.61Q134.70 9.26 134.18 9.07Q133.66 8.88 133.03 8.88L133.03 8.88Q131.86 8.88 131.06 9.50Q130.26 10.13 129.86 11.26Q129.46 12.39 129.46 13.87L129.46 13.87Q129.46 15.33 129.86 16.46Q130.26 17.58 131.06 18.22Q131.86 18.87 133.03 18.87L133.03 18.87Q133.66 18.87 134.19 18.67Q134.71 18.47 135.12 18.10Q135.53 17.72 135.81 17.20Q136.09 16.67 136.21 16.01L136.21 16.01L140.30 16.76Q140.06 18.06 139.45 19.08Q138.83 20.10 137.88 20.83Q136.93 21.56 135.69 21.94Q134.45 22.32 132.99 22.32ZM148.34 13.84L145.35 17.21L145.35 11.92L146.01 11.92L151.37 5.62L156.45 5.62L149.38 13.84L148.34 13.84ZM145.76 22L141.36 22L141.36 0.17L145.76 0.17L145.76 22ZM156.76 22L151.59 22L146.67 14.82L149.61 11.70L156.76 22ZM164.21 22.32L164.21 22.32Q161.71 22.32 159.89 21.30Q158.08 20.27 157.10 18.38Q156.13 16.49 156.13 13.90L156.13 13.90Q156.13 11.37 157.09 9.46Q158.06 7.56 159.83 6.49Q161.61 5.42 163.99 5.42L163.99 5.42Q165.60 5.42 167.00 5.93Q168.39 6.44 169.44 7.48Q170.50 8.51 171.09 10.06Q171.68 11.61 171.68 13.72L171.68 13.72L171.68 14.95L157.93 14.95L157.93 12.20L169.53 12.20L167.48 12.93Q167.48 11.66 167.09 10.71Q166.70 9.77 165.93 9.25Q165.17 8.73 164.02 8.73L164.02 8.73Q162.89 8.73 162.10 9.26Q161.30 9.78 160.89 10.68Q160.48 11.58 160.48 12.74L160.48 12.74L160.48 14.69Q160.48 16.11 160.95 17.08Q161.43 18.04 162.29 18.53Q163.14 19.01 164.29 19.01L164.29 19.01Q165.06 19.01 165.69 18.79Q166.32 18.57 166.77 18.14Q167.22 17.71 167.45 17.08L167.45 17.08L171.43 17.83Q171.04 19.17 170.06 20.19Q169.08 21.21 167.60 21.77Q166.13 22.32 164.21 22.32ZM177.13 22L172.74 22L172.74 5.62L176.98 5.62L176.98 8.48L177.16 8.48Q177.61 6.96 178.68 6.18Q179.74 5.40 181.12 5.40L181.12 5.40Q181.45 5.40 181.84 5.44Q182.23 5.48 182.54 5.55L182.54 5.55L182.54 9.48Q182.24 9.37 181.69 9.31Q181.13 9.26 180.63 9.26L180.63 9.26Q179.64 9.26 178.83 9.69Q178.02 10.12 177.58 10.89Q177.13 11.66 177.13 12.68L177.13 12.68L177.13 22Z"/></g>
        
      </svg>
    